<mxfile host="app.diagrams.net" agent="Mozilla/5.0 (X11; Ubuntu; Linux x86_64; rv:134.0) Gecko/20100101 Firefox/134.0" version="26.0.11">
  <diagram name="Page-1" id="e7e014a7-5840-1c2e-5031-d8a46d1fe8dd">
    <mxGraphModel grid="1" page="1" gridSize="10" guides="1" tooltips="1" connect="1" arrows="1" fold="1" pageScale="1" pageWidth="1169" pageHeight="826" background="none" math="0" shadow="0">
      <root>
        <mxCell id="0" />
        <mxCell id="1" parent="0" />
        <mxCell id="hpU7_QgUJqxquLZ2u5oh-41" value="Utilisateur se présente au comptoir" style="rounded=1;whiteSpace=wrap;html=1;" vertex="1" parent="1">
          <mxGeometry x="-155" y="550" width="120" height="60" as="geometry" />
        </mxCell>
        <mxCell id="hpU7_QgUJqxquLZ2u5oh-42" value="" style="ellipse;html=1;shape=startState;fillColor=#000000;strokeColor=#ff0000;" vertex="1" parent="1">
          <mxGeometry x="-110" y="460" width="30" height="30" as="geometry" />
        </mxCell>
        <mxCell id="hpU7_QgUJqxquLZ2u5oh-43" value="" style="edgeStyle=orthogonalEdgeStyle;html=1;verticalAlign=bottom;endArrow=open;endSize=8;strokeColor=#ff0000;rounded=0;" edge="1" parent="1" source="hpU7_QgUJqxquLZ2u5oh-42">
          <mxGeometry relative="1" as="geometry">
            <mxPoint x="-95" y="550" as="targetPoint" />
          </mxGeometry>
        </mxCell>
        <mxCell id="hpU7_QgUJqxquLZ2u5oh-44" value="Utilisateur remet le livre emprunté" style="rounded=1;whiteSpace=wrap;html=1;" vertex="1" parent="1">
          <mxGeometry x="-155" y="660" width="120" height="60" as="geometry" />
        </mxCell>
        <mxCell id="hpU7_QgUJqxquLZ2u5oh-45" value="" style="endArrow=open;strokeColor=#FF0000;endFill=1;rounded=0;exitX=0.5;exitY=1;exitDx=0;exitDy=0;entryX=0.5;entryY=0;entryDx=0;entryDy=0;" edge="1" parent="1" source="hpU7_QgUJqxquLZ2u5oh-41" target="hpU7_QgUJqxquLZ2u5oh-44">
          <mxGeometry relative="1" as="geometry">
            <mxPoint x="289.5" y="428" as="sourcePoint" />
            <mxPoint x="289.5" y="488" as="targetPoint" />
          </mxGeometry>
        </mxCell>
        <mxCell id="hpU7_QgUJqxquLZ2u5oh-47" value="" style="endArrow=open;strokeColor=#FF0000;endFill=1;rounded=0;exitX=0.5;exitY=1;exitDx=0;exitDy=0;" edge="1" parent="1" source="hpU7_QgUJqxquLZ2u5oh-44" target="hpU7_QgUJqxquLZ2u5oh-54">
          <mxGeometry relative="1" as="geometry">
            <mxPoint x="-90" y="690" as="sourcePoint" />
            <mxPoint x="-95" y="768" as="targetPoint" />
          </mxGeometry>
        </mxCell>
        <mxCell id="hpU7_QgUJqxquLZ2u5oh-50" value="" style="endArrow=open;strokeColor=#FF0000;endFill=1;rounded=0;exitX=1;exitY=0.5;exitDx=0;exitDy=0;entryX=0.5;entryY=0;entryDx=0;entryDy=0;" edge="1" parent="1" source="hpU7_QgUJqxquLZ2u5oh-54" target="hpU7_QgUJqxquLZ2u5oh-51">
          <mxGeometry relative="1" as="geometry">
            <mxPoint x="-35" y="780" as="sourcePoint" />
            <mxPoint x="70" y="780" as="targetPoint" />
            <Array as="points">
              <mxPoint x="40" y="800" />
            </Array>
          </mxGeometry>
        </mxCell>
        <mxCell id="hpU7_QgUJqxquLZ2u5oh-56" value="&lt;font&gt;Oui&lt;/font&gt;" style="edgeLabel;html=1;align=center;verticalAlign=middle;resizable=0;points=[];fontSize=12;" connectable="0" vertex="1" parent="hpU7_QgUJqxquLZ2u5oh-50">
          <mxGeometry x="0.232" y="4" relative="1" as="geometry">
            <mxPoint y="-6" as="offset" />
          </mxGeometry>
        </mxCell>
        <mxCell id="hpU7_QgUJqxquLZ2u5oh-51" value="Utilisateur reçoit une pénalité à son compte" style="rounded=1;whiteSpace=wrap;html=1;" vertex="1" parent="1">
          <mxGeometry x="-20" y="840" width="120" height="60" as="geometry" />
        </mxCell>
        <mxCell id="hpU7_QgUJqxquLZ2u5oh-54" value="Retour est en retard" style="rhombus;fillColor=#ffffc0;strokeColor=#ff0000;" vertex="1" parent="1">
          <mxGeometry x="-135" y="780" width="80" height="40" as="geometry" />
        </mxCell>
        <mxCell id="hpU7_QgUJqxquLZ2u5oh-57" value="" style="endArrow=open;strokeColor=#FF0000;endFill=1;rounded=0;exitX=0;exitY=0.5;exitDx=0;exitDy=0;entryX=0.5;entryY=0;entryDx=0;entryDy=0;" edge="1" parent="1" source="hpU7_QgUJqxquLZ2u5oh-54" target="V-5hV-7g_UAq4Bps-HIJ-1">
          <mxGeometry relative="1" as="geometry">
            <mxPoint x="-200" y="760" as="sourcePoint" />
            <mxPoint x="-230" y="840" as="targetPoint" />
            <Array as="points">
              <mxPoint x="-230" y="800" />
              <mxPoint x="-230" y="920" />
              <mxPoint x="-95" y="920" />
            </Array>
          </mxGeometry>
        </mxCell>
        <mxCell id="hpU7_QgUJqxquLZ2u5oh-58" value="Non" style="edgeLabel;html=1;align=center;verticalAlign=middle;resizable=0;points=[];fontSize=12;" connectable="0" vertex="1" parent="hpU7_QgUJqxquLZ2u5oh-57">
          <mxGeometry x="0.232" y="4" relative="1" as="geometry">
            <mxPoint x="1" y="-126" as="offset" />
          </mxGeometry>
        </mxCell>
        <mxCell id="hpU7_QgUJqxquLZ2u5oh-59" value="" style="ellipse;shape=endState;fillColor=#000000;strokeColor=#ff0000" vertex="1" parent="1">
          <mxGeometry x="-110" y="1250" width="30" height="30" as="geometry" />
        </mxCell>
        <mxCell id="hpU7_QgUJqxquLZ2u5oh-60" value="" style="endArrow=open;strokeColor=#FF0000;endFill=1;rounded=0;exitX=0.5;exitY=1;exitDx=0;exitDy=0;entryX=0.5;entryY=0;entryDx=0;entryDy=0;" edge="1" parent="1" source="hpU7_QgUJqxquLZ2u5oh-51" target="V-5hV-7g_UAq4Bps-HIJ-1">
          <mxGeometry relative="1" as="geometry">
            <mxPoint x="285" y="820" as="sourcePoint" />
            <Array as="points">
              <mxPoint x="40" y="920" />
              <mxPoint x="-95" y="920" />
            </Array>
            <mxPoint x="-95" y="980" as="targetPoint" />
          </mxGeometry>
        </mxCell>
        <mxCell id="V-5hV-7g_UAq4Bps-HIJ-1" value="On confirme le retour du livre" style="rounded=1;whiteSpace=wrap;html=1;" vertex="1" parent="1">
          <mxGeometry x="-155" y="960" width="120" height="60" as="geometry" />
        </mxCell>
        <mxCell id="V-5hV-7g_UAq4Bps-HIJ-2" value="" style="endArrow=open;strokeColor=#FF0000;endFill=1;rounded=0;exitX=0.5;exitY=1;exitDx=0;exitDy=0;entryX=0.5;entryY=0;entryDx=0;entryDy=0;" edge="1" parent="1" source="V-5hV-7g_UAq4Bps-HIJ-1" target="V-5hV-7g_UAq4Bps-HIJ-8">
          <mxGeometry relative="1" as="geometry">
            <mxPoint x="-85" y="730" as="sourcePoint" />
            <mxPoint x="-95" y="1060" as="targetPoint" />
          </mxGeometry>
        </mxCell>
        <mxCell id="V-5hV-7g_UAq4Bps-HIJ-5" value="" style="endArrow=open;strokeColor=#FF0000;endFill=1;rounded=0;exitX=1;exitY=0.5;exitDx=0;exitDy=0;entryX=0.5;entryY=0;entryDx=0;entryDy=0;" edge="1" parent="1" source="V-5hV-7g_UAq4Bps-HIJ-8" target="V-5hV-7g_UAq4Bps-HIJ-7">
          <mxGeometry relative="1" as="geometry">
            <mxPoint x="-35" y="1070" as="sourcePoint" />
            <mxPoint x="70" y="1070" as="targetPoint" />
            <Array as="points">
              <mxPoint x="40" y="1090" />
            </Array>
          </mxGeometry>
        </mxCell>
        <mxCell id="V-5hV-7g_UAq4Bps-HIJ-6" value="&lt;font&gt;Oui&lt;/font&gt;" style="edgeLabel;html=1;align=center;verticalAlign=middle;resizable=0;points=[];fontSize=12;" connectable="0" vertex="1" parent="V-5hV-7g_UAq4Bps-HIJ-5">
          <mxGeometry x="0.232" y="4" relative="1" as="geometry">
            <mxPoint y="-6" as="offset" />
          </mxGeometry>
        </mxCell>
        <mxCell id="V-5hV-7g_UAq4Bps-HIJ-7" value="La personne ayant la réservation reçoit une notification de disponibilité du livre" style="rounded=1;whiteSpace=wrap;html=1;" vertex="1" parent="1">
          <mxGeometry x="-20" y="1130" width="120" height="60" as="geometry" />
        </mxCell>
        <mxCell id="V-5hV-7g_UAq4Bps-HIJ-8" value="Livre retourné&#xa; est réservé" style="rhombus;fillColor=#ffffc0;strokeColor=#ff0000;" vertex="1" parent="1">
          <mxGeometry x="-135" y="1070" width="80" height="40" as="geometry" />
        </mxCell>
        <mxCell id="V-5hV-7g_UAq4Bps-HIJ-9" value="" style="endArrow=open;strokeColor=#FF0000;endFill=1;rounded=0;exitX=0;exitY=0.5;exitDx=0;exitDy=0;entryX=0.5;entryY=0;entryDx=0;entryDy=0;" edge="1" parent="1" source="V-5hV-7g_UAq4Bps-HIJ-8">
          <mxGeometry relative="1" as="geometry">
            <mxPoint x="-200" y="1050" as="sourcePoint" />
            <mxPoint x="-95" y="1250" as="targetPoint" />
            <Array as="points">
              <mxPoint x="-230" y="1090" />
              <mxPoint x="-230" y="1210" />
              <mxPoint x="-95" y="1210" />
            </Array>
          </mxGeometry>
        </mxCell>
        <mxCell id="V-5hV-7g_UAq4Bps-HIJ-10" value="Non" style="edgeLabel;html=1;align=center;verticalAlign=middle;resizable=0;points=[];fontSize=12;" connectable="0" vertex="1" parent="V-5hV-7g_UAq4Bps-HIJ-9">
          <mxGeometry x="0.232" y="4" relative="1" as="geometry">
            <mxPoint x="1" y="-126" as="offset" />
          </mxGeometry>
        </mxCell>
        <mxCell id="V-5hV-7g_UAq4Bps-HIJ-11" value="" style="endArrow=open;strokeColor=#FF0000;endFill=1;rounded=0;exitX=0.5;exitY=1;exitDx=0;exitDy=0;entryX=0.5;entryY=0;entryDx=0;entryDy=0;" edge="1" parent="1" source="V-5hV-7g_UAq4Bps-HIJ-7" target="hpU7_QgUJqxquLZ2u5oh-59">
          <mxGeometry relative="1" as="geometry">
            <mxPoint x="285" y="1110" as="sourcePoint" />
            <Array as="points">
              <mxPoint x="40" y="1210" />
              <mxPoint x="-95" y="1210" />
            </Array>
            <mxPoint x="-95" y="1250" as="targetPoint" />
          </mxGeometry>
        </mxCell>
        <mxCell id="V-5hV-7g_UAq4Bps-HIJ-14" value="&lt;div&gt;&lt;font style=&quot;font-size: 20px;&quot;&gt;Diagramme d’activité :&amp;nbsp;&lt;/font&gt;&lt;/div&gt;&lt;div&gt;&lt;font style=&quot;font-size: 20px;&quot;&gt;Décrire le processus de retour d’un livre&lt;br&gt;&lt;br&gt;&lt;br&gt;&lt;/font&gt;&lt;/div&gt;" style="text;html=1;align=center;verticalAlign=middle;resizable=0;points=[];autosize=1;strokeColor=none;fillColor=none;" vertex="1" parent="1">
          <mxGeometry x="-610" y="445" width="380" height="110" as="geometry" />
        </mxCell>
        <mxCell id="V-5hV-7g_UAq4Bps-HIJ-15" value="Ceci semble correct à se qu&#39;on veut..." style="text;html=1;align=center;verticalAlign=middle;resizable=0;points=[];autosize=1;strokeColor=none;fillColor=none;" vertex="1" parent="1">
          <mxGeometry x="-530" y="525" width="220" height="30" as="geometry" />
        </mxCell>
      </root>
    </mxGraphModel>
  </diagram>
</mxfile>
